Coordinates
version=1
nRows=26
nColumns=24
inDegrees=yes

Units are S.I. units (second, meters, Newtons, ...)
Angles are in degrees.

endheader
time	pelvis_tilt	pelvis_list	pelvis_rotation	pelvis_tx	pelvis_ty	pelvis_tz	hip_flexion_r	hip_adduction_r	hip_rotation_r	knee_angle_r	ankle_angle_r	subtalar_angle_r	mtp_angle_r	hip_flexion_l	hip_adduction_l	hip_rotation_l	knee_angle_l	ankle_angle_l	subtalar_angle_l	mtp_angle_l	lumbar_extension	lumbar_bending	lumbar_rotation
      1.14150000	     -0.53934571	      6.49561077	      0.26591359	      0.12810553	      0.99474846	      0.28686149	     22.83316424	     -6.76062478	     -0.60130894	    -71.09790563	      0.75086583	    -12.52066131	     -1.33924163	      8.19250700	     11.52044324	      1.81916132	    -12.29898069	      4.17797704	     -9.37773495	      0.26216222	     -0.98484836	     -4.18368426	      2.82475077
      1.14566667	     -0.49395134	      6.37843091	      0.27625146	      0.13320724	      0.99553192	      0.28676367	     23.30101953	     -6.58847614	     -0.50358160	    -70.72131484	      1.44424749	    -12.77630449	     -1.38083114	      7.59132265	     11.40923856	      2.00424009	    -11.88348700	      4.20019253	     -9.46759476	      0.24182742	     -1.07069762	     -4.02933204	      2.75681028
      1.14983333	     -0.49012571	      6.22366460	      0.29458357	      0.13829403	      0.99623823	      0.28668657	     23.78843255	     -6.37119052	     -0.41879701	    -70.26544302	      2.13097243	    -12.96251815	     -1.39632234	      7.06301073	     11.25010180	      2.14578531	    -11.52292290	      4.24474730	     -9.48589697	      0.23089850	     -1.09996587	     -3.82983843	      2.70989122
      1.15400000	     -0.46660753	      6.09296180	      0.31537711	      0.14337551	      0.99691298	      0.28660407	     24.24027313	     -6.18500960	     -0.33125220	    -69.76414786	      2.82570234	    -13.16904749	     -1.41558966	      6.50890429	     11.11837582	      2.30815140	    -11.14997736	      4.29864519	     -9.53822482	      0.21782455	     -1.16506328	     -3.66326907	      2.65159438
      1.15816667	     -0.38471702	      5.99009039	      0.32235750	      0.14846692	      0.99763561	      0.28651381	     24.61083788	     -6.03559532	     -0.23856622	    -69.20077468	      3.46277730	    -13.38900302	     -1.48304208	      5.85462309	     11.02518737	      2.57130793	    -10.70037966	      4.29792836	     -9.73742604	      0.17937555	     -1.30833289	     -3.54028515	      2.54918090
      1.16233333	     -0.38753687	      5.84572201	      0.34713773	      0.15351475	      0.99819185	      0.28645835	     25.04998189	     -5.83172918	     -0.15312846	    -68.56793691	      4.11759512	    -13.50662366	     -1.51264796	      5.35331511	     10.87447463	      2.73418153	    -10.37089383	      4.35294859	     -9.79310009	      0.15909564	     -1.33975311	     -3.37538138	      2.50011933
      1.16650000	     -0.37957869	      5.70518859	      0.36899145	      0.15858296	      0.99873189	      0.28638646	     25.45761660	     -5.64256864	     -0.08099681	    -67.87943030	      4.75472946	    -13.63400389	     -1.53814539	      4.83045171	     10.72814911	      2.89729884	    -10.01910616	      4.41253275	     -9.85357122	      0.14083982	     -1.38837393	     -3.18180791	      2.44393675
      1.17066667	     -0.29733614	      5.59676282	      0.38407153	      0.16365775	      0.99932070	      0.28631839	     25.76351620	     -5.49137109	     -0.00077857	    -67.13345617	      5.34834345	    -13.76372887	     -1.61051437	      4.19429304	     10.62122182	      3.14722525	     -9.60096203	      4.43956219	    -10.04121137	      0.09596149	     -1.52670180	     -3.05814357	      2.33966250
      1.17483333	     -0.27931237	      5.47158177	      0.40772597	      0.16870590	      0.99977818	      0.28626066	     26.12059043	     -5.32011212	      0.07566683	    -66.33009724	      5.93648564	    -13.85309401	     -1.68173999	      3.66100387	     10.49095945	      3.34760394	     -9.24573207	      4.48557539	    -10.17524927	      0.05149994	     -1.58612057	     -2.90441485	      2.26865076
      1.17900000	     -0.30841925	      5.33136203	      0.43909564	      0.17372697	      1.00012137	      0.28621927	     26.50752322	     -5.12847372	      0.15126659	    -65.46468690	      6.48106433	    -13.92208486	     -1.71265571	      3.21214788	     10.33823840	      3.49223504	     -8.95421961	      4.56158185	    -10.22029014	      0.03044242	     -1.58862639	     -2.73436379	      2.22376775
      1.18316667	     -0.25344168	      5.22844683	      0.45747499	      0.17877648	      1.00053276	      0.28617519	     26.78579432	     -4.98636010	      0.22668037	    -64.55523036	      7.00274912	    -14.02800911	     -1.79352495	      2.62601239	     10.22932431	      3.71677115	     -8.57064483	      4.61150018	    -10.37531110	     -0.01903634	     -1.70137801	     -2.61050291	      2.12499732
      1.18733333	     -0.25070302	      5.11670712	      0.48438900	      0.18379565	      1.00080971	      0.28614179	     27.10313587	     -4.83349334	      0.29948804	    -63.59477108	      7.49601965	    -14.10842096	     -1.87530355	      2.12536197	     10.10734778	      3.90451786	     -8.24122429	      4.68084879	    -10.49553802	     -0.06861310	     -1.74833023	     -2.47584232	      2.05308426
      1.19150000	     -0.29447447	      5.00154183	      0.51475567	      0.18879551	      1.00097021	      0.28612295	     27.45182441	     -4.67338112	      0.37746188	    -62.57939159	      7.94537977	    -14.17155632	     -1.91462138	      1.70622450	      9.97725443	      4.03852900	     -7.97307136	      4.77429348	    -10.53800620	     -0.09268176	     -1.73464633	     -2.33347721	      2.00834302
      1.19566667	     -0.26432782	      4.91002241	      0.53465156	      0.19382264	      1.00118853	      0.28610423	     27.70060982	     -4.54589707	      0.44955759	    -61.51940217	      8.35037710	    -14.28778896	     -2.00401814	      1.16555252	      9.87408135	      4.23317269	     -7.62214552	      4.84874963	    -10.66183165	     -0.14396166	     -1.82626522	     -2.22700829	      1.91457928
      1.19983333	     -0.26389593	      4.81030072	      0.56341236	      0.19883395	      1.00134151	      0.28610120	     27.95474932	     -4.40785466	      0.51880380	    -60.39633620	      8.71591939	    -14.38808736	     -2.09276461	      0.68090343	      9.75800211	      4.39835167	     -7.31812741	      4.93363057	    -10.74938387	     -0.19369068	     -1.87037369	     -2.10774384	      1.84276224
      1.20400000	     -0.27482229	      4.72117305	      0.58836898	      0.20383350	      1.00140836	      0.28609901	     28.20924863	     -4.28408260	      0.58849903	    -59.23707640	      9.03663198	    -14.49541446	     -2.18293231	      0.21303430	      9.65267756	      4.55015055	     -7.02052390	      5.02926919	    -10.82049608	     -0.24268173	     -1.90902825	     -2.00463197	      1.77294769
      1.20816667	     -0.31859636	      4.64114574	      0.61598419	      0.20881710	      1.00137449	      0.28610411	     28.48289467	     -4.17049449	      0.66149712	    -58.03635766	      9.33834871	    -14.56940071	     -2.22780805	     -0.19558962	      9.55441330	      4.65802992	     -6.76819216	      5.13604874	    -10.84208728	     -0.26587723	     -1.89997188	     -1.90422430	      1.73275229
      1.21233333	     -0.34909582	      4.56084914	      0.64153923	      0.21381703	      1.00133373	      0.28611903	     28.71606558	     -4.05772939	      0.72898446	    -56.78185518	      9.57300104	    -14.68453942	     -2.28125444	     -0.63155397	      9.45459158	      4.78382176	     -6.49197414	      5.24832387	    -10.87831594	     -0.29179148	     -1.91134160	     -1.80507445	      1.67469099
      1.21650000	     -0.36058609	      4.49836735	      0.66079869	      0.21881386	      1.00124866	      0.28615341	     28.91736850	     -3.96723676	      0.78861681	    -55.50047810	      9.75669499	    -14.81335505	     -2.34582503	     -1.09491142	      9.37215506	      4.90628396	     -6.19944315	      5.35664527	    -10.92312187	     -0.32273555	     -1.96110718	     -1.74283151	      1.60826022
      1.22066667	     -0.35624246	      4.45593116	      0.66972604	      0.22380924	      1.00114217	      0.28618609	     29.08361189	     -3.89368117	      0.86863770	    -54.17809584	      9.86260469	    -14.98762116	     -2.46338585	     -1.58398420	      9.31293420	      5.04946242	     -5.89034267	      5.45049102	    -10.99417492	     -0.37954855	     -2.02050339	     -1.69077782	      1.52497499
      1.22483333	     -0.38267647	      4.40167243	      0.68662573	      0.22882863	      1.00096941	      0.28622129	     29.25766649	     -3.81653982	      0.92119973	    -52.81208340	      9.96096796	    -15.12585468	     -2.62445588	     -2.03106741	      9.23827614	      5.15779047	     -5.59994312	      5.54594199	    -11.04935752	     -0.45799551	     -2.02974039	     -1.62632483	      1.46242649
      1.22900000	     -0.45114271	      4.35140672	      0.70975861	      0.23381186	      1.00069300	      0.28625486	     29.46118527	     -3.74613858	      0.97341483	    -51.41018189	     10.02611479	    -15.17814761	     -2.68770104	     -2.40384585	      9.16789597	      5.23951683	     -5.36684139	      5.67739161	    -11.04642873	     -0.48601241	     -2.00645865	     -1.56288380	      1.43236963
      1.23316667	     -0.48938943	      4.30845069	      0.71954444	      0.23882400	      1.00041374	      0.28631165	     29.61199701	     -3.68154231	      1.02290707	    -49.97581732	     10.02454680	    -15.27475733	     -2.75869240	     -2.82591917	      9.10358945	      5.31472679	     -5.10068072	      5.80334789	    -11.04435213	     -0.51710409	     -2.01748517	     -1.51450838	      1.38677337
      1.23733333	     -0.51703954	      4.28130584	      0.72306465	      0.24383569	      1.00009520	      0.28636552	     29.73685673	     -3.63629826	      1.07319962	    -48.51798845	      9.98443321	    -15.35762489	     -2.83243357	     -3.25801000	      9.05741947	      5.37771692	     -4.83768421	      5.92534313	    -11.04643316	     -0.55006183	     -2.02915351	     -1.47327149	      1.34314216
      1.24150000	     -0.56177671	      4.25792158	      0.72433582	      0.24885855	      0.99972732	      0.28643760	     29.86160484	     -3.59693354	      1.11275952	    -47.03078526	      9.91212947	    -15.41665022	     -2.90485258	     -3.67254043	      9.01434247	      5.43255135	     -4.57369005	      6.04822956	    -11.04202810	     -0.58339962	     -2.03821902	     -1.45400471	      1.30510175
      1.24566667	     -0.60147340	      4.23077929	      0.72349762	      0.25388767	      0.99933174	      0.28651325	     29.95845345	     -3.55466723	      1.14633956	    -45.51223466	      9.80083497	    -15.45501119	     -2.98221940	     -4.08926272	      8.96742503	      5.47453064	     -4.31792061	      6.17225556	    -11.03259337	     -0.62100193	     -2.04902776	     -1.42542585	      1.26937023
